<svg width="607" height="200" viewBox="0 0 607 200" fill="none" xmlns="http://www.w3.org/2000/svg">
<path fill-rule="evenodd" clip-rule="evenodd" d="M9 53.7222V163.722C9 163.722 55.2193 157.905 90.5769 156.877C91.0165 158.552 91.6843 160.45 92.5 160.722C94 161.222 107.5 161.097 109 160.722C109.82 160.517 110.491 158.593 110.93 156.892C146.221 157.96 192 163.722 192 163.722V53.7222L100.5 66.2222L9 53.7222Z" fill="black"/>
<path d="M12.5 156.722V52.2222C12.5 52.2222 46.7193 50.6601 64 52.2222C81.2807 53.7843 101 60.2222 101 60.2222V156.722C101 156.722 78.8827 148.249 64 147.222C43.5972 145.814 12.5 156.722 12.5 156.722Z" fill="#D9D9D9" stroke="black"/>
<path d="M16 153.529V49.2222C16 49.2222 43.9027 46.163 60.5 47.7222C77.0973 49.2814 101 60.4004 101 60.4004V155.722C101 155.722 76.2941 146.248 62 145.222C42.4041 143.817 16 153.529 16 153.529Z" fill="#D9D9D9" stroke="black"/>
<path d="M22 148.722V44.8372C22 44.8372 45.0743 40.6693 60.5 42.2222C75.9257 43.7751 101 60.7902 101 60.7902V154.722C101 154.722 78.2851 143.743 65 142.722C46.7873 141.322 22 148.722 22 148.722Z" fill="#D9D9D9" stroke="black"/>
<path d="M28 142.246V38.2222C28 38.2222 58.5 33.2222 74.5 38.2222C90.5 43.2222 101 60.6621 101 60.6621V153.722C101 153.722 84.9964 143.521 73 140.722C58 137.222 28 142.246 28 142.246Z" fill="#D9D9D9"/>
<path d="M28 142.246V38.2222C28 38.2222 58.5 33.2222 74.5 38.2222C90.5 43.2222 101 60.6621 101 60.6621V153.722C101 153.722 84.9964 143.521 73 140.722C58 137.222 28 142.246 28 142.246Z" fill="url(#paint0_linear_4_112)" fill-opacity="0.2"/>
<path d="M28 142.246V38.2222C28 38.2222 58.5 33.2222 74.5 38.2222C90.5 43.2222 101 60.6621 101 60.6621V153.722C101 153.722 84.9964 143.521 73 140.722C58 137.222 28 142.246 28 142.246Z" stroke="black"/>
<path d="M189.5 156.722V52.2222C189.5 52.2222 155.281 50.6601 138 52.2222C120.719 53.7843 101 60.2222 101 60.2222V156.722C101 156.722 123.117 148.249 138 147.222C158.403 145.814 189.5 156.722 189.5 156.722Z" fill="#D9D9D9" stroke="black"/>
<path d="M186 153.529V49.2222C186 49.2222 158.097 46.163 141.5 47.7222C124.903 49.2814 101 60.4004 101 60.4004V155.722C101 155.722 125.706 146.248 140 145.222C159.596 143.817 186 153.529 186 153.529Z" fill="#D9D9D9" stroke="black"/>
<path d="M180 148.722V44.8372C180 44.8372 156.926 40.6693 141.5 42.2222C126.074 43.7751 101 60.7902 101 60.7902V154.722C101 154.722 123.715 143.743 137 142.722C155.213 141.322 180 148.722 180 148.722Z" fill="#D9D9D9" stroke="black"/>
<path d="M174 142.246V38.2222C174 38.2222 143.5 33.2222 127.5 38.2222C111.5 43.2222 101 60.6621 101 60.6621V153.722C101 153.722 117.004 143.521 129 140.722C144 137.222 174 142.246 174 142.246Z" fill="#D9D9D9"/>
<path d="M174 142.246V38.2222C174 38.2222 143.5 33.2222 127.5 38.2222C111.5 43.2222 101 60.6621 101 60.6621V153.722C101 153.722 117.004 143.521 129 140.722C144 137.222 174 142.246 174 142.246Z" fill="url(#paint1_linear_4_112)" fill-opacity="0.2"/>
<path d="M174 142.246V38.2222C174 38.2222 143.5 33.2222 127.5 38.2222C111.5 43.2222 101 60.6621 101 60.6621V153.722C101 153.722 117.004 143.521 129 140.722C144 137.222 174 142.246 174 142.246Z" stroke="black"/>
<path d="M100.5 95L83.0728 77.3223C73.4481 67.5592 57.8433 67.5592 48.2186 77.3223C38.5938 87.0854 38.5938 102.915 48.2186 112.678C57.8433 122.441 73.4481 122.441 83.0729 112.678L100.5 95ZM100.5 95L117.927 77.3223C127.552 67.5592 143.157 67.5592 152.781 77.3223C162.406 87.0854 162.406 102.915 152.781 112.678C143.157 122.441 127.552 122.441 117.927 112.678L100.5 95Z" stroke="black" stroke-width="4" stroke-linejoin="round"/>
<path d="M237.16 109.526C237.16 111.726 237.248 113.464 237.424 114.74C237.6 116.016 237.93 117.006 238.414 117.71C238.942 118.414 239.668 118.876 240.592 119.096C241.56 119.316 242.814 119.448 244.354 119.492V122H222.97V119.492C224.51 119.448 225.742 119.316 226.666 119.096C227.634 118.832 228.382 118.37 228.91 117.71C229.438 117.05 229.79 116.126 229.966 114.938C230.142 113.706 230.23 112.056 230.23 109.988V83.192C230.23 81.344 230.142 79.826 229.966 78.638C229.834 77.406 229.526 76.438 229.042 75.734C228.602 75.03 227.942 74.546 227.062 74.282C226.182 73.974 225.038 73.776 223.63 73.688V71.18H243.694V73.688C242.286 73.732 241.142 73.908 240.262 74.216C239.426 74.524 238.766 75.052 238.282 75.8C237.842 76.504 237.534 77.494 237.358 78.77C237.226 80.046 237.16 81.674 237.16 83.654V109.526ZM261.649 111.638C261.649 113.442 261.693 114.872 261.781 115.928C261.869 116.94 262.089 117.732 262.441 118.304C262.837 118.832 263.387 119.184 264.091 119.36C264.839 119.536 265.851 119.668 267.127 119.756V122H249.835V119.756C251.067 119.668 252.035 119.536 252.739 119.36C253.487 119.184 254.059 118.832 254.455 118.304C254.851 117.776 255.093 117.028 255.181 116.06C255.313 115.092 255.379 113.772 255.379 112.1V103.322C255.379 98.086 255.247 94.896 254.983 93.752C254.851 93.18 254.675 92.718 254.455 92.366C254.279 91.97 253.993 91.684 253.597 91.508C253.201 91.288 252.695 91.156 252.079 91.112C251.463 91.024 250.671 90.98 249.703 90.98V88.868L260.263 86.36L261.055 92.894H261.319C262.991 90.826 264.949 89.22 267.193 88.076C269.437 86.932 271.879 86.36 274.519 86.36C276.543 86.36 278.391 86.69 280.063 87.35C281.735 88.01 283.011 88.912 283.891 90.056C284.639 91.068 285.167 92.388 285.475 94.016C285.783 95.6 285.937 97.8 285.937 100.616V111.638C285.937 113.442 285.981 114.872 286.069 115.928C286.201 116.94 286.443 117.732 286.795 118.304C287.147 118.832 287.675 119.184 288.379 119.36C289.127 119.536 290.095 119.668 291.283 119.756V122H274.189V119.756C275.421 119.712 276.389 119.602 277.093 119.426C277.841 119.206 278.391 118.832 278.743 118.304C279.139 117.776 279.381 117.028 279.469 116.06C279.601 115.048 279.667 113.728 279.667 112.1V103.388C279.667 100.88 279.535 98.768 279.271 97.052C279.007 95.336 278.567 93.95 277.951 92.894C277.379 91.838 276.609 91.09 275.641 90.65C274.673 90.166 273.507 89.924 272.143 89.924C270.163 89.924 268.337 90.452 266.665 91.508C265.037 92.52 263.761 93.928 262.837 95.732C262.617 96.172 262.419 96.59 262.243 96.986C262.111 97.382 262.001 97.844 261.913 98.372C261.825 98.9 261.759 99.516 261.715 100.22C261.671 100.88 261.649 101.738 261.649 102.794V111.638ZM328.998 111.308C328.998 113.024 329.064 114.432 329.196 115.532C329.328 116.588 329.57 117.424 329.922 118.04C330.274 118.612 330.758 119.008 331.374 119.228C331.99 119.448 332.804 119.558 333.816 119.558V122H316.854V119.558C318.086 119.558 319.076 119.448 319.824 119.228C320.572 119.008 321.144 118.612 321.54 118.04C321.936 117.468 322.2 116.676 322.332 115.664C322.464 114.652 322.53 113.376 322.53 111.836V103.52C322.53 100.968 322.486 98.878 322.398 97.25C322.31 95.622 322.2 94.5 322.068 93.884C321.848 92.828 321.342 92.124 320.55 91.772C319.758 91.376 318.262 91.178 316.062 91.178H307.812V111.374C307.812 113.002 307.878 114.366 308.01 115.466C308.186 116.522 308.472 117.358 308.868 117.974C309.308 118.59 309.88 119.03 310.584 119.294C311.288 119.558 312.212 119.69 313.356 119.69V122H296.592V119.69C297.692 119.69 298.572 119.602 299.232 119.426C299.892 119.25 300.398 118.876 300.75 118.304C301.102 117.732 301.322 116.94 301.41 115.928C301.542 114.916 301.608 113.574 301.608 111.902V91.178H294.15V88.076H301.608V83.324C301.608 78.264 303.06 74.326 305.964 71.51C308.868 68.65 312.982 67.22 318.306 67.22C321.43 67.22 323.96 67.616 325.896 68.408C327.876 69.156 328.866 70.146 328.866 71.378C328.866 72.258 328.58 73.006 328.008 73.622C327.48 74.194 326.798 74.48 325.962 74.48C325.434 74.48 324.84 74.326 324.18 74.018C323.52 73.71 322.684 73.204 321.672 72.5C321.012 72.06 320.44 71.708 319.956 71.444C319.472 71.136 319.01 70.916 318.57 70.784C318.174 70.608 317.756 70.498 317.316 70.454C316.92 70.41 316.436 70.388 315.864 70.388C314.5 70.388 313.312 70.564 312.3 70.916C311.288 71.268 310.452 71.906 309.792 72.83C309.132 73.754 308.626 75.03 308.274 76.658C307.966 78.286 307.812 80.376 307.812 82.928V88.076H318.372L328.998 86.36V111.308ZM350.143 111.638C350.143 113.442 350.187 114.872 350.275 115.928C350.363 116.94 350.583 117.732 350.935 118.304C351.331 118.832 351.881 119.184 352.585 119.36C353.333 119.536 354.345 119.668 355.621 119.756V122H338.329V119.756C339.561 119.668 340.529 119.536 341.233 119.36C341.981 119.184 342.553 118.832 342.949 118.304C343.345 117.776 343.587 117.028 343.675 116.06C343.807 115.092 343.873 113.772 343.873 112.1V103.322C343.873 98.086 343.741 94.896 343.477 93.752C343.345 93.18 343.169 92.718 342.949 92.366C342.773 91.97 342.487 91.684 342.091 91.508C341.695 91.288 341.189 91.156 340.573 91.112C339.957 91.024 339.165 90.98 338.197 90.98V88.868L348.757 86.36L349.549 92.894H349.813C351.485 90.826 353.443 89.22 355.687 88.076C357.931 86.932 360.373 86.36 363.013 86.36C365.037 86.36 366.885 86.69 368.557 87.35C370.229 88.01 371.505 88.912 372.385 90.056C373.133 91.068 373.661 92.388 373.969 94.016C374.277 95.6 374.431 97.8 374.431 100.616V111.638C374.431 113.442 374.475 114.872 374.563 115.928C374.695 116.94 374.937 117.732 375.289 118.304C375.641 118.832 376.169 119.184 376.873 119.36C377.621 119.536 378.589 119.668 379.777 119.756V122H362.683V119.756C363.915 119.712 364.883 119.602 365.587 119.426C366.335 119.206 366.885 118.832 367.237 118.304C367.633 117.776 367.875 117.028 367.963 116.06C368.095 115.048 368.161 113.728 368.161 112.1V103.388C368.161 100.88 368.029 98.768 367.765 97.052C367.501 95.336 367.061 93.95 366.445 92.894C365.873 91.838 365.103 91.09 364.135 90.65C363.167 90.166 362.001 89.924 360.637 89.924C358.657 89.924 356.831 90.452 355.159 91.508C353.531 92.52 352.255 93.928 351.331 95.732C351.111 96.172 350.913 96.59 350.737 96.986C350.605 97.382 350.495 97.844 350.407 98.372C350.319 98.9 350.253 99.516 350.209 100.22C350.165 100.88 350.143 101.738 350.143 102.794V111.638ZM396.439 111.506C396.439 113.222 396.505 114.608 396.637 115.664C396.813 116.676 397.121 117.49 397.561 118.106C398.001 118.678 398.617 119.074 399.409 119.294C400.201 119.514 401.257 119.646 402.577 119.69V122H383.635V119.69C384.955 119.646 386.033 119.514 386.869 119.294C387.705 119.03 388.343 118.634 388.783 118.106C389.267 117.534 389.575 116.764 389.707 115.796C389.883 114.784 389.971 113.508 389.971 111.968V103.52C389.971 100.968 389.927 98.878 389.839 97.25C389.795 95.578 389.685 94.434 389.509 93.818C389.289 92.806 388.783 92.124 387.991 91.772C387.199 91.376 385.703 91.178 383.503 91.178V88.868L396.439 86.36V111.506ZM388.849 72.962C388.849 71.818 389.245 70.85 390.037 70.058C390.829 69.266 391.797 68.87 392.941 68.87C394.085 68.87 395.053 69.266 395.845 70.058C396.637 70.85 397.033 71.818 397.033 72.962C397.033 74.106 396.637 75.074 395.845 75.866C395.053 76.658 394.085 77.054 392.941 77.054C391.797 77.054 390.829 76.658 390.037 75.866C389.245 75.074 388.849 74.106 388.849 72.962ZM417.745 91.772H418.009C419.417 90.1 420.935 88.78 422.563 87.812C424.191 86.844 426.083 86.36 428.239 86.36C430.747 86.36 433.035 86.822 435.103 87.746C437.215 88.626 439.041 89.88 440.581 91.508C442.121 93.136 443.309 95.072 444.145 97.316C445.025 99.516 445.465 101.936 445.465 104.576C445.465 107.26 445.025 109.724 444.145 111.968C443.265 114.168 442.055 116.06 440.515 117.644C438.975 119.228 437.149 120.46 435.037 121.34C432.925 122.22 430.637 122.66 428.173 122.66C426.149 122.66 424.301 122.33 422.629 121.67C421.001 120.966 419.461 119.844 418.009 118.304V127.94C418.009 129.7 418.097 131.108 418.273 132.164C418.449 133.22 418.801 134.034 419.329 134.606C419.857 135.178 420.605 135.574 421.573 135.794C422.585 136.014 423.905 136.146 425.533 136.19V138.5H405.205V136.19C406.525 136.146 407.581 136.014 408.373 135.794C409.209 135.574 409.847 135.178 410.287 134.606C410.771 134.034 411.101 133.242 411.277 132.23C411.453 131.262 411.541 129.986 411.541 128.402V103.718C411.541 101.166 411.497 99.076 411.409 97.448C411.365 95.82 411.255 94.698 411.079 94.082C410.859 93.026 410.353 92.322 409.561 91.97C408.769 91.574 407.273 91.376 405.073 91.376V89.132L417.745 86.624V91.772ZM419.725 93.686C419.153 94.566 418.713 95.622 418.405 96.854C418.141 98.042 418.009 99.604 418.009 101.54V106.688C418.009 107.876 418.031 108.91 418.075 109.79C418.163 110.626 418.273 111.352 418.405 111.968C418.537 112.584 418.713 113.134 418.933 113.618C419.153 114.102 419.439 114.564 419.791 115.004C420.803 116.412 422.013 117.512 423.421 118.304C424.829 119.052 426.303 119.426 427.843 119.426C430.879 119.426 433.321 118.15 435.169 115.598C437.061 113.046 438.007 109.46 438.007 104.84C438.007 102.552 437.743 100.484 437.215 98.636C436.731 96.744 436.027 95.138 435.103 93.818C434.179 92.454 433.057 91.398 431.737 90.65C430.461 89.902 429.031 89.528 427.447 89.528C425.863 89.528 424.389 89.902 423.025 90.65C421.705 91.354 420.605 92.366 419.725 93.686ZM483.132 115.862C479.392 120.394 474.75 122.66 469.206 122.66C466.61 122.66 464.256 122.242 462.144 121.406C460.032 120.526 458.206 119.316 456.666 117.776C455.17 116.192 454.004 114.322 453.168 112.166C452.332 109.966 451.914 107.546 451.914 104.906C451.914 102.222 452.354 99.736 453.234 97.448C454.114 95.16 455.346 93.202 456.93 91.574C458.558 89.946 460.472 88.67 462.672 87.746C464.916 86.822 467.358 86.36 469.998 86.36C474.266 86.36 477.566 87.526 479.898 89.858C482.23 92.146 483.396 95.446 483.396 99.758C483.396 100.374 483.264 100.748 483 100.88C482.78 101.012 482.23 101.078 481.35 101.078H459.636C459.548 101.43 459.482 101.87 459.438 102.398C459.394 102.882 459.372 103.432 459.372 104.048C459.372 106.336 459.636 108.426 460.164 110.318C460.736 112.166 461.528 113.75 462.54 115.07C463.596 116.39 464.828 117.424 466.236 118.172C467.688 118.876 469.294 119.228 471.054 119.228C472.902 119.228 474.618 118.832 476.202 118.04C477.786 117.204 479.414 115.862 481.086 114.014L483.132 115.862ZM472.242 98.042C473.122 98.042 473.826 98.02 474.354 97.976C474.882 97.932 475.278 97.844 475.542 97.712C475.806 97.58 475.982 97.404 476.07 97.184C476.158 96.92 476.202 96.59 476.202 96.194C476.202 94.17 475.542 92.564 474.222 91.376C472.946 90.144 471.186 89.528 468.942 89.528C464.19 89.528 461.242 92.366 460.098 98.042H472.242ZM518.458 116.456H518.194C516.61 118.7 514.916 120.306 513.112 121.274C511.352 122.198 509.262 122.66 506.842 122.66C504.334 122.66 502.024 122.22 499.912 121.34C497.844 120.416 496.04 119.162 494.5 117.578C493.004 115.95 491.816 114.014 490.936 111.77C490.1 109.526 489.682 107.084 489.682 104.444C489.682 101.848 490.1 99.45 490.936 97.25C491.816 95.006 493.004 93.092 494.5 91.508C496.04 89.88 497.866 88.626 499.978 87.746C502.09 86.822 504.378 86.36 506.842 86.36C508.954 86.36 510.824 86.712 512.452 87.416C514.124 88.12 515.73 89.242 517.27 90.782V84.05C517.27 81.542 517.226 79.452 517.138 77.78C517.094 76.108 517.006 74.964 516.874 74.348C516.654 73.38 516.038 72.698 515.026 72.302C514.014 71.906 512.364 71.708 510.076 71.708V69.728L523.606 67.22V105.302C523.606 108.338 523.628 110.846 523.672 112.826C523.716 114.762 523.848 116.148 524.068 116.984C524.2 117.512 524.354 117.952 524.53 118.304C524.75 118.656 525.036 118.942 525.388 119.162C525.784 119.338 526.29 119.47 526.906 119.558C527.566 119.646 528.402 119.69 529.414 119.69V121.934L518.458 122.66V116.456ZM517.138 101.87C517.138 99.582 517.006 97.844 516.742 96.656C516.522 95.468 516.06 94.434 515.356 93.554C514.344 92.234 513.046 91.244 511.462 90.584C509.922 89.88 508.382 89.528 506.842 89.528C503.674 89.528 501.254 90.848 499.582 93.488C497.954 96.084 497.14 99.626 497.14 104.114C497.14 106.446 497.338 108.558 497.734 110.45C498.174 112.342 498.79 113.97 499.582 115.334C500.418 116.654 501.43 117.688 502.618 118.436C503.85 119.14 505.258 119.492 506.842 119.492C507.634 119.492 508.426 119.404 509.218 119.228C510.054 119.052 510.846 118.788 511.594 118.436C512.386 118.04 513.112 117.6 513.772 117.116C514.432 116.588 514.982 115.994 515.422 115.334C516.038 114.366 516.478 113.2 516.742 111.836C517.006 110.472 517.138 108.602 517.138 106.226V101.87ZM546.099 111.506C546.099 113.222 546.165 114.608 546.297 115.664C546.473 116.676 546.781 117.49 547.221 118.106C547.661 118.678 548.277 119.074 549.069 119.294C549.861 119.514 550.917 119.646 552.237 119.69V122H533.295V119.69C534.615 119.646 535.693 119.514 536.529 119.294C537.365 119.03 538.003 118.634 538.443 118.106C538.927 117.534 539.235 116.764 539.367 115.796C539.543 114.784 539.631 113.508 539.631 111.968V103.52C539.631 100.968 539.587 98.878 539.499 97.25C539.455 95.578 539.345 94.434 539.169 93.818C538.949 92.806 538.443 92.124 537.651 91.772C536.859 91.376 535.363 91.178 533.163 91.178V88.868L546.099 86.36V111.506ZM538.509 72.962C538.509 71.818 538.905 70.85 539.697 70.058C540.489 69.266 541.457 68.87 542.601 68.87C543.745 68.87 544.713 69.266 545.505 70.058C546.297 70.85 546.693 71.818 546.693 72.962C546.693 74.106 546.297 75.074 545.505 75.866C544.713 76.658 543.745 77.054 542.601 77.054C541.457 77.054 540.489 76.658 539.697 75.866C538.905 75.074 538.509 74.106 538.509 72.962ZM576.579 102.464C574.071 103.432 571.937 104.378 570.177 105.302C568.461 106.226 567.075 107.15 566.019 108.074C564.963 108.998 564.193 109.922 563.709 110.846C563.269 111.77 563.049 112.716 563.049 113.684C563.049 115.136 563.533 116.324 564.501 117.248C565.469 118.172 566.745 118.634 568.329 118.634C569.473 118.634 570.529 118.348 571.497 117.776C572.509 117.204 573.389 116.434 574.137 115.466C574.885 114.454 575.479 113.288 575.919 111.968C576.359 110.604 576.579 109.174 576.579 107.678V102.464ZM576.579 99.626V96.92C576.579 91.552 574.291 88.868 569.715 88.868C568.967 88.868 568.329 88.934 567.801 89.066C567.273 89.198 566.833 89.418 566.481 89.726C566.129 90.034 565.799 90.474 565.491 91.046C565.227 91.618 564.963 92.322 564.699 93.158C564.215 94.434 563.731 95.292 563.247 95.732C562.807 96.128 562.147 96.326 561.267 96.326C559.067 96.326 557.967 95.226 557.967 93.026C557.967 90.914 559.089 89.286 561.333 88.142C563.577 86.954 566.767 86.36 570.903 86.36C575.303 86.36 578.427 87.152 580.275 88.736C582.123 90.276 583.047 92.916 583.047 96.656V111.44C583.047 116.456 584.037 118.964 586.017 118.964C586.633 118.964 587.227 118.898 587.799 118.766C588.371 118.59 588.855 118.172 589.251 117.512L590.175 119.096C589.647 120.108 588.679 120.966 587.271 121.67C585.863 122.33 584.389 122.66 582.849 122.66C580.913 122.66 579.461 122.044 578.493 120.812C577.569 119.58 577.107 117.842 577.107 115.598H576.777C575.633 117.754 574.049 119.47 572.025 120.746C570.001 121.978 567.757 122.594 565.293 122.594C562.521 122.594 560.343 121.89 558.759 120.482C557.175 119.074 556.383 117.182 556.383 114.806C556.383 113.75 556.559 112.738 556.911 111.77C557.307 110.802 557.923 109.878 558.759 108.998C559.595 108.118 560.695 107.26 562.059 106.424C563.423 105.544 565.095 104.664 567.075 103.784L576.579 99.626Z" fill="white"/>
<defs>
<linearGradient id="paint0_linear_4_112" x1="28" y1="82.7222" x2="101" y2="107.222" gradientUnits="userSpaceOnUse">
<stop stop-color="white" stop-opacity="0"/>
<stop offset="1"/>
</linearGradient>
<linearGradient id="paint1_linear_4_112" x1="174" y1="82.7222" x2="101" y2="107.222" gradientUnits="userSpaceOnUse">
<stop stop-color="white" stop-opacity="0"/>
<stop offset="1"/>
</linearGradient>
</defs>
</svg>
